solid games/73t7r15-666ax
  facet normal 0.000000e+0 0.000000e+0 1.000000e+0
    outer loop
      vertex -1.700000e+1 -5.000000e+0 0.000000e+0
      vertex -7.000000e+0 -5.000000e+0 0.000000e+0
      vertex -7.000000e+0 5.000000e+0 0.000000e+0
    endloop
  endfacet
  facet normal 0.000000e+0 0.000000e+0 1.000000e+0
    outer loop
      vertex -1.700000e+1 -5.000000e+0 0.000000e+0
      vertex -7.000000e+0 5.000000e+0 0.000000e+0
      vertex -1.700000e+1 5.000000e+0 0.000000e+0
    endloop
  endfacet
  facet normal 0.000000e+0 0.000000e+0 1.000000e+0
    outer loop
      vertex -1.700000e+1 -5.000000e+0 1.200000e+1
      vertex -7.000000e+0 -5.000000e+0 1.200000e+1
      vertex -7.000000e+0 5.000000e+0 1.200000e+1
    endloop
  endfacet
  facet normal 0.000000e+0 0.000000e+0 1.000000e+0
    outer loop
      vertex -1.700000e+1 -5.000000e+0 1.200000e+1
      vertex -7.000000e+0 5.000000e+0 1.200000e+1
      vertex -1.700000e+1 5.000000e+0 1.200000e+1
    endloop
  endfacet
  facet normal -1.000000e+0 0.000000e+0 0.000000e+0
    outer loop
      vertex -1.700000e+1 -5.000000e+0 0.000000e+0
      vertex -1.700000e+1 -5.000000e+0 1.200000e+1
      vertex -1.700000e+1 5.000000e+0 1.200000e+1
    endloop
  endfacet
  facet normal -1.000000e+0 0.000000e+0 0.000000e+0
    outer loop
      vertex -1.700000e+1 -5.000000e+0 0.000000e+0
      vertex -1.700000e+1 5.000000e+0 1.200000e+1
      vertex -1.700000e+1 5.000000e+0 0.000000e+0
    endloop
  endfacet
  facet normal -1.000000e+0 0.000000e+0 0.000000e+0
    outer loop
      vertex -7.000000e+0 -5.000000e+0 0.000000e+0
      vertex -7.000000e+0 -5.000000e+0 1.200000e+1
      vertex -7.000000e+0 5.000000e+0 1.200000e+1
    endloop
  endfacet
  facet normal -1.000000e+0 0.000000e+0 0.000000e+0
    outer loop
      vertex -7.000000e+0 -5.000000e+0 0.000000e+0
      vertex -7.000000e+0 5.000000e+0 1.200000e+1
      vertex -7.000000e+0 5.000000e+0 0.000000e+0
    endloop
  endfacet
  facet normal 0.000000e+0 -1.000000e+0 0.000000e+0
    outer loop
      vertex -1.700000e+1 -5.000000e+0 0.000000e+0
      vertex -7.000000e+0 -5.000000e+0 0.000000e+0
      vertex -7.000000e+0 -5.000000e+0 1.200000e+1
    endloop
  endfacet
  facet normal 0.000000e+0 -1.000000e+0 0.000000e+0
    outer loop
      vertex -1.700000e+1 -5.000000e+0 0.000000e+0
      vertex -7.000000e+0 -5.000000e+0 1.200000e+1
      vertex -1.700000e+1 -5.000000e+0 1.200000e+1
    endloop
  endfacet
  facet normal 0.000000e+0 -1.000000e+0 0.000000e+0
    outer loop
      vertex -1.700000e+1 5.000000e+0 0.000000e+0
      vertex -7.000000e+0 5.000000e+0 0.000000e+0
      vertex -7.000000e+0 5.000000e+0 1.200000e+1
    endloop
  endfacet
  facet normal 0.000000e+0 -1.000000e+0 0.000000e+0
    outer loop
      vertex -1.700000e+1 5.000000e+0 0.000000e+0
      vertex -7.000000e+0 5.000000e+0 1.200000e+1
      vertex -1.700000e+1 5.000000e+0 1.200000e+1
    endloop
  endfacet
  facet normal 0.000000e+0 0.000000e+0 1.000000e+0
    outer loop
      vertex -5.000000e+0 -5.000000e+0 0.000000e+0
      vertex 5.000000e+0 -5.000000e+0 0.000000e+0
      vertex 5.000000e+0 5.000000e+0 0.000000e+0
    endloop
  endfacet
  facet normal 0.000000e+0 0.000000e+0 1.000000e+0
    outer loop
      vertex -5.000000e+0 -5.000000e+0 0.000000e+0
      vertex 5.000000e+0 5.000000e+0 0.000000e+0
      vertex -5.000000e+0 5.000000e+0 0.000000e+0
    endloop
  endfacet
  facet normal 0.000000e+0 0.000000e+0 1.000000e+0
    outer loop
      vertex -5.000000e+0 -5.000000e+0 1.200000e+1
      vertex 5.000000e+0 -5.000000e+0 1.200000e+1
      vertex 5.000000e+0 5.000000e+0 1.200000e+1
    endloop
  endfacet
  facet normal 0.000000e+0 0.000000e+0 1.000000e+0
    outer loop
      vertex -5.000000e+0 -5.000000e+0 1.200000e+1
      vertex 5.000000e+0 5.000000e+0 1.200000e+1
      vertex -5.000000e+0 5.000000e+0 1.200000e+1
    endloop
  endfacet
  facet normal -1.000000e+0 0.000000e+0 0.000000e+0
    outer loop
      vertex -5.000000e+0 -5.000000e+0 0.000000e+0
      vertex -5.000000e+0 -5.000000e+0 1.200000e+1
      vertex -5.000000e+0 5.000000e+0 1.200000e+1
    endloop
  endfacet
  facet normal -1.000000e+0 0.000000e+0 0.000000e+0
    outer loop
      vertex -5.000000e+0 -5.000000e+0 0.000000e+0
      vertex -5.000000e+0 5.000000e+0 1.200000e+1
      vertex -5.000000e+0 5.000000e+0 0.000000e+0
    endloop
  endfacet
  facet normal -1.000000e+0 0.000000e+0 0.000000e+0
    outer loop
      vertex 5.000000e+0 -5.000000e+0 0.000000e+0
      vertex 5.000000e+0 -5.000000e+0 1.200000e+1
      vertex 5.000000e+0 5.000000e+0 1.200000e+1
    endloop
  endfacet
  facet normal -1.000000e+0 0.000000e+0 0.000000e+0
    outer loop
      vertex 5.000000e+0 -5.000000e+0 0.000000e+0
      vertex 5.000000e+0 5.000000e+0 1.200000e+1
      vertex 5.000000e+0 5.000000e+0 0.000000e+0
    endloop
  endfacet
  facet normal 0.000000e+0 -1.000000e+0 0.000000e+0
    outer loop
      vertex -5.000000e+0 -5.000000e+0 0.000000e+0
      vertex 5.000000e+0 -5.000000e+0 0.000000e+0
      vertex 5.000000e+0 -5.000000e+0 1.200000e+1
    endloop
  endfacet
  facet normal 0.000000e+0 -1.000000e+0 0.000000e+0
    outer loop
      vertex -5.000000e+0 -5.000000e+0 0.000000e+0
      vertex 5.000000e+0 -5.000000e+0 1.200000e+1
      vertex -5.000000e+0 -5.000000e+0 1.200000e+1
    endloop
  endfacet
  facet normal 0.000000e+0 -1.000000e+0 0.000000e+0
    outer loop
      vertex -5.000000e+0 5.000000e+0 0.000000e+0
      vertex 5.000000e+0 5.000000e+0 0.000000e+0
      vertex 5.000000e+0 5.000000e+0 1.200000e+1
    endloop
  endfacet
  facet normal 0.000000e+0 -1.000000e+0 0.000000e+0
    outer loop
      vertex -5.000000e+0 5.000000e+0 0.000000e+0
      vertex 5.000000e+0 5.000000e+0 1.200000e+1
      vertex -5.000000e+0 5.000000e+0 1.200000e+1
    endloop
  endfacet
  facet normal 0.000000e+0 0.000000e+0 1.000000e+0
    outer loop
      vertex 7.000000e+0 -5.000000e+0 0.000000e+0
      vertex 1.700000e+1 -5.000000e+0 0.000000e+0
      vertex 1.700000e+1 5.000000e+0 0.000000e+0
    endloop
  endfacet
  facet normal 0.000000e+0 0.000000e+0 1.000000e+0
    outer loop
      vertex 7.000000e+0 -5.000000e+0 0.000000e+0
      vertex 1.700000e+1 5.000000e+0 0.000000e+0
      vertex 7.000000e+0 5.000000e+0 0.000000e+0
    endloop
  endfacet
  facet normal 0.000000e+0 0.000000e+0 1.000000e+0
    outer loop
      vertex 7.000000e+0 -5.000000e+0 1.200000e+1
      vertex 1.700000e+1 -5.000000e+0 1.200000e+1
      vertex 1.700000e+1 5.000000e+0 1.200000e+1
    endloop
  endfacet
  facet normal 0.000000e+0 0.000000e+0 1.000000e+0
    outer loop
      vertex 7.000000e+0 -5.000000e+0 1.200000e+1
      vertex 1.700000e+1 5.000000e+0 1.200000e+1
      vertex 7.000000e+0 5.000000e+0 1.200000e+1
    endloop
  endfacet
  facet normal -1.000000e+0 0.000000e+0 0.000000e+0
    outer loop
      vertex 7.000000e+0 -5.000000e+0 0.000000e+0
      vertex 7.000000e+0 -5.000000e+0 1.200000e+1
      vertex 7.000000e+0 5.000000e+0 1.200000e+1
    endloop
  endfacet
  facet normal -1.000000e+0 0.000000e+0 0.000000e+0
    outer loop
      vertex 7.000000e+0 -5.000000e+0 0.000000e+0
      vertex 7.000000e+0 5.000000e+0 1.200000e+1
      vertex 7.000000e+0 5.000000e+0 0.000000e+0
    endloop
  endfacet
  facet normal -1.000000e+0 0.000000e+0 0.000000e+0
    outer loop
      vertex 1.700000e+1 -5.000000e+0 0.000000e+0
      vertex 1.700000e+1 -5.000000e+0 1.200000e+1
      vertex 1.700000e+1 5.000000e+0 1.200000e+1
    endloop
  endfacet
  facet normal -1.000000e+0 0.000000e+0 0.000000e+0
    outer loop
      vertex 1.700000e+1 -5.000000e+0 0.000000e+0
      vertex 1.700000e+1 5.000000e+0 1.200000e+1
      vertex 1.700000e+1 5.000000e+0 0.000000e+0
    endloop
  endfacet
  facet normal 0.000000e+0 -1.000000e+0 0.000000e+0
    outer loop
      vertex 7.000000e+0 -5.000000e+0 0.000000e+0
      vertex 1.700000e+1 -5.000000e+0 0.000000e+0
      vertex 1.700000e+1 -5.000000e+0 1.200000e+1
    endloop
  endfacet
  facet normal 0.000000e+0 -1.000000e+0 0.000000e+0
    outer loop
      vertex 7.000000e+0 -5.000000e+0 0.000000e+0
      vertex 1.700000e+1 -5.000000e+0 1.200000e+1
      vertex 7.000000e+0 -5.000000e+0 1.200000e+1
    endloop
  endfacet
  facet normal 0.000000e+0 -1.000000e+0 0.000000e+0
    outer loop
      vertex 7.000000e+0 5.000000e+0 0.000000e+0
      vertex 1.700000e+1 5.000000e+0 0.000000e+0
      vertex 1.700000e+1 5.000000e+0 1.200000e+1
    endloop
  endfacet
  facet normal 0.000000e+0 -1.000000e+0 0.000000e+0
    outer loop
      vertex 7.000000e+0 5.000000e+0 0.000000e+0
      vertex 1.700000e+1 5.000000e+0 1.200000e+1
      vertex 7.000000e+0 5.000000e+0 1.200000e+1
    endloop
  endfacet
  facet normal 0.000000e+0 0.000000e+0 1.000000e+0
    outer loop
      vertex -5.000000e+0 7.000000e+0 0.000000e+0
      vertex 5.000000e+0 7.000000e+0 0.000000e+0
      vertex 5.000000e+0 1.700000e+1 0.000000e+0
    endloop
  endfacet
  facet normal 0.000000e+0 0.000000e+0 1.000000e+0
    outer loop
      vertex -5.000000e+0 7.000000e+0 0.000000e+0
      vertex 5.000000e+0 1.700000e+1 0.000000e+0
      vertex -5.000000e+0 1.700000e+1 0.000000e+0
    endloop
  endfacet
  facet normal 0.000000e+0 0.000000e+0 1.000000e+0
    outer loop
      vertex -5.000000e+0 7.000000e+0 1.200000e+1
      vertex 5.000000e+0 7.000000e+0 1.200000e+1
      vertex 5.000000e+0 1.700000e+1 1.200000e+1
    endloop
  endfacet
  facet normal 0.000000e+0 0.000000e+0 1.000000e+0
    outer loop
      vertex -5.000000e+0 7.000000e+0 1.200000e+1
      vertex 5.000000e+0 1.700000e+1 1.200000e+1
      vertex -5.000000e+0 1.700000e+1 1.200000e+1
    endloop
  endfacet
  facet normal -1.000000e+0 0.000000e+0 0.000000e+0
    outer loop
      vertex -5.000000e+0 7.000000e+0 0.000000e+0
      vertex -5.000000e+0 7.000000e+0 1.200000e+1
      vertex -5.000000e+0 1.700000e+1 1.200000e+1
    endloop
  endfacet
  facet normal -1.000000e+0 0.000000e+0 0.000000e+0
    outer loop
      vertex -5.000000e+0 7.000000e+0 0.000000e+0
      vertex -5.000000e+0 1.700000e+1 1.200000e+1
      vertex -5.000000e+0 1.700000e+1 0.000000e+0
    endloop
  endfacet
  facet normal -1.000000e+0 0.000000e+0 0.000000e+0
    outer loop
      vertex 5.000000e+0 7.000000e+0 0.000000e+0
      vertex 5.000000e+0 7.000000e+0 1.200000e+1
      vertex 5.000000e+0 1.700000e+1 1.200000e+1
    endloop
  endfacet
  facet normal -1.000000e+0 0.000000e+0 0.000000e+0
    outer loop
      vertex 5.000000e+0 7.000000e+0 0.000000e+0
      vertex 5.000000e+0 1.700000e+1 1.200000e+1
      vertex 5.000000e+0 1.700000e+1 0.000000e+0
    endloop
  endfacet
  facet normal 0.000000e+0 -1.000000e+0 0.000000e+0
    outer loop
      vertex -5.000000e+0 7.000000e+0 0.000000e+0
      vertex 5.000000e+0 7.000000e+0 0.000000e+0
      vertex 5.000000e+0 7.000000e+0 1.200000e+1
    endloop
  endfacet
  facet normal 0.000000e+0 -1.000000e+0 0.000000e+0
    outer loop
      vertex -5.000000e+0 7.000000e+0 0.000000e+0
      vertex 5.000000e+0 7.000000e+0 1.200000e+1
      vertex -5.000000e+0 7.000000e+0 1.200000e+1
    endloop
  endfacet
  facet normal 0.000000e+0 -1.000000e+0 0.000000e+0
    outer loop
      vertex -5.000000e+0 1.700000e+1 0.000000e+0
      vertex 5.000000e+0 1.700000e+1 0.000000e+0
      vertex 5.000000e+0 1.700000e+1 1.200000e+1
    endloop
  endfacet
  facet normal 0.000000e+0 -1.000000e+0 0.000000e+0
    outer loop
      vertex -5.000000e+0 1.700000e+1 0.000000e+0
      vertex 5.000000e+0 1.700000e+1 1.200000e+1
      vertex -5.000000e+0 1.700000e+1 1.200000e+1
    endloop
  endfacet
endsolid games/73t7r15-666ax
